{
  "_id": "C:/Transcode/Source Folder/SampleVideo_1280x720_1mb.mp4",
  "file": "C:/Transcode/Source Folder/SampleVideo_1280x720_1mb.mp4",
  "DB": "2MY5YD7P8",
  "footprintId": "KA_y0Hm3Ld",
  "hasClosedCaptions": false,
  "container": "mp4",
  "scannerReads": {
    "ffProbeRead": "success",
    "exiftoolRead": "success",
    "mediaInfoRead": "success",
    "closedCaptionRead": "\"Unable to run CCExtractor\""
  },
  "ffProbeData": {
    "streams": [
      {
        "index": 0,
        "codec_name": "hevc",
        "codec_long_name": "H.265 / HEVC (High Efficiency Video Coding)",
        "profile": "Main 10",
        "codec_type": "video",
        "codec_time_base": "1001/24000",
        "codec_tag_string": "[0][0][0][0]",
        "codec_tag": "0x0000",
        "width": 1920,
        "height": 1080,
        "coded_width": 1920,
        "coded_height": 1080,
        "closed_captions": 0,
        "has_b_frames": 2,
        "sample_aspect_ratio": "1:1",
        "display_aspect_ratio": "16:9",
        "pix_fmt": "yuv420p10le",
        "level": 150,
        "color_range": "tv",
        "color_space": "bt709",
        "color_transfer": "bt709",
        "color_primaries": "bt709",
        "refs": 1,
        "r_frame_rate": "24000/1001",
        "avg_frame_rate": "24000/1001",
        "time_base": "1/1000",
        "start_pts": 0,
        "start_time": "0.000000",
        "disposition": {
          "default": 1,
          "dub": 0,
          "original": 0,
          "comment": 0,
          "lyrics": 0,
          "karaoke": 0,
          "forced": 0,
          "hearing_impaired": 0,
          "visual_impaired": 0,
          "clean_effects": 0,
          "attached_pic": 0,
          "timed_thumbnails": 0
        },
        "tags": {
          "language": "eng",
          "BPS-eng": "9197079",
          "DURATION-eng": "00:23:07.053000000",
          "NUMBER_OF_FRAMES-eng": "33256",
          "NUMBER_OF_BYTES-eng": "1594604637",
          "_STATISTICS_WRITING_APP-eng": "mkvmerge v55.0.0 ('Waiting For Space') 64-bit",
          "_STATISTICS_WRITING_DATE_UTC-eng": "2021-03-13 02:23:31",
          "_STATISTICS_TAGS-eng": "BPS DURATION NUMBER_OF_FRAMES NUMBER_OF_BYTES"
        }
      },
      {
        "index": 1,
        "codec_name": "opus",
        "codec_long_name": "Opus (Opus Interactive Audio Codec)",
        "codec_type": "audio",
        "codec_time_base": "1/48000",
        "codec_tag_string": "[0][0][0][0]",
        "codec_tag": "0x0000",
        "sample_fmt": "fltp",
        "sample_rate": "48000",
        "channels": 2,
        "channel_layout": "stereo",
        "bits_per_sample": 0,
        "r_frame_rate": "0/0",
        "avg_frame_rate": "0/0",
        "time_base": "1/1000",
        "start_pts": 0,
        "start_time": "0.000000",
        "disposition": {
          "default": 1,
          "dub": 0,
          "original": 0,
          "comment": 0,
          "lyrics": 0,
          "karaoke": 0,
          "forced": 0,
          "hearing_impaired": 0,
          "visual_impaired": 0,
          "clean_effects": 0,
          "attached_pic": 0,
          "timed_thumbnails": 0
        },
        "tags": {
          "language": "jpn",
          "title": "[Telegram: @AnimeDubbed_1]",
          "BPS": "125374",
          "NUMBER_OF_FRAMES": "66629",
          "NUMBER_OF_BYTES": "22276296",
          "_STATISTICS_WRITING_APP": "mkvmerge v65.0.0 ('Too Much') 64-bit",
          "_STATISTICS_WRITING_DATE_UTC": "2023-04-23 13:06:42",
          "_STATISTICS_TAGS": "BPS DURATION NUMBER_OF_FRAMES NUMBER_OF_BYTES",
          "ENCODER": "Lavc60.3.100 libopus",
          "DURATION": "00:23:41.448000000"
        }
      },
      {
        "index": 2,
        "codec_name": "subrip",
        "codec_long_name": "SubRip subtitle",
        "codec_type": "subtitle",
        "codec_time_base": "0/1",
        "codec_tag_string": "[0][0][0][0]",
        "codec_tag": "0x0000",
        "r_frame_rate": "0/0",
        "avg_frame_rate": "0/0",
        "time_base": "1/1000",
        "start_pts": 0,
        "start_time": "0.000000",
        "duration_ts": 1421448,
        "duration": "1421.448000",
        "disposition": {
          "default": 0,
          "dub": 0,
          "original": 0,
          "comment": 0,
          "lyrics": 0,
          "karaoke": 0,
          "forced": 0,
          "hearing_impaired": 0,
          "visual_impaired": 0,
          "clean_effects": 0,
          "attached_pic": 0,
          "timed_thumbnails": 0
        },
        "tags": {
          "language": "jpn",
          "BPS": "85",
          "NUMBER_OF_FRAMES": "446",
          "NUMBER_OF_BYTES": "15012",
          "_STATISTICS_WRITING_APP": "mkvmerge v65.0.0 ('Too Much') 64-bit",
          "_STATISTICS_WRITING_DATE_UTC": "2023-04-23 13:06:42",
          "_STATISTICS_TAGS": "BPS DURATION NUMBER_OF_FRAMES NUMBER_OF_BYTES",
          "DURATION": "00:23:38.173000000"
        }
      },
      {
        "index": 3,
        "codec_name": "subrip",
        "codec_long_name": "SubRip subtitle",
        "codec_type": "subtitle",
        "codec_time_base": "0/1",
        "codec_tag_string": "[0][0][0][0]",
        "codec_tag": "0x0000",
        "r_frame_rate": "0/0",
        "avg_frame_rate": "0/0",
        "time_base": "1/1000",
        "start_pts": 0,
        "start_time": "0.000000",
        "duration_ts": 1421448,
        "duration": "1421.448000",
        "disposition": {
          "default": 0,
          "dub": 0,
          "original": 0,
          "comment": 0,
          "lyrics": 0,
          "karaoke": 0,
          "forced": 0,
          "hearing_impaired": 0,
          "visual_impaired": 0,
          "clean_effects": 0,
          "attached_pic": 0,
          "timed_thumbnails": 0
        },
        "tags": {
          "language": "jpn",
          "title": "SDH",
          "BPS": "85",
          "NUMBER_OF_FRAMES": "446",
          "NUMBER_OF_BYTES": "15012",
          "_STATISTICS_WRITING_APP": "mkvmerge v65.0.0 ('Too Much') 64-bit",
          "_STATISTICS_WRITING_DATE_UTC": "2023-04-23 13:06:42",
          "_STATISTICS_TAGS": "BPS DURATION NUMBER_OF_FRAMES NUMBER_OF_BYTES",
          "DURATION": "00:23:38.173000000"
        }
      },
      {
        "index": 4,
        "codec_name": "subrip",
        "codec_long_name": "SubRip subtitle",
        "codec_type": "subtitle",
        "codec_time_base": "0/1",
        "codec_tag_string": "[0][0][0][0]",
        "codec_tag": "0x0000",
        "r_frame_rate": "0/0",
        "avg_frame_rate": "0/0",
        "time_base": "1/1000",
        "start_pts": 0,
        "start_time": "0.000000",
        "duration_ts": 1421448,
        "duration": "1421.448000",
        "disposition": {
          "default": 0,
          "dub": 0,
          "original": 0,
          "comment": 0,
          "lyrics": 0,
          "karaoke": 0,
          "forced": 0,
          "hearing_impaired": 0,
          "visual_impaired": 0,
          "clean_effects": 0,
          "attached_pic": 0,
          "timed_thumbnails": 0
        },
        "tags": {
          "language": "eng",
          "BPS": "49",
          "NUMBER_OF_FRAMES": "297",
          "NUMBER_OF_BYTES": "8128",
          "_STATISTICS_WRITING_APP": "mkvmerge v65.0.0 ('Too Much') 64-bit",
          "_STATISTICS_WRITING_DATE_UTC": "2023-04-23 13:06:42",
          "_STATISTICS_TAGS": "BPS DURATION NUMBER_OF_FRAMES NUMBER_OF_BYTES",
          "DURATION": "00:22:08.335000000"
        }
      },
      {
        "index": 5,
        "codec_name": "subrip",
        "codec_long_name": "SubRip subtitle",
        "codec_type": "subtitle",
        "codec_time_base": "0/1",
        "codec_tag_string": "[0][0][0][0]",
        "codec_tag": "0x0000",
        "r_frame_rate": "0/0",
        "avg_frame_rate": "0/0",
        "time_base": "1/1000",
        "start_pts": 0,
        "start_time": "0.000000",
        "duration_ts": 1421448,
        "duration": "1421.448000",
        "disposition": {
          "default": 0,
          "dub": 0,
          "original": 0,
          "comment": 0,
          "lyrics": 0,
          "karaoke": 0,
          "forced": 0,
          "hearing_impaired": 0,
          "visual_impaired": 0,
          "clean_effects": 0,
          "attached_pic": 0,
          "timed_thumbnails": 0
        },
        "tags": {
          "language": "eng",
          "title": "SDH",
          "BPS": "60",
          "NUMBER_OF_FRAMES": "375",
          "NUMBER_OF_BYTES": "10074",
          "_STATISTICS_WRITING_APP": "mkvmerge v65.0.0 ('Too Much') 64-bit",
          "_STATISTICS_WRITING_DATE_UTC": "2023-04-23 13:06:42",
          "_STATISTICS_TAGS": "BPS DURATION NUMBER_OF_FRAMES NUMBER_OF_BYTES",
          "DURATION": "00:22:08.335000000"
        }
      },
      {
        "index": 6,
        "codec_name": "subrip",
        "codec_long_name": "SubRip subtitle",
        "codec_type": "subtitle",
        "codec_time_base": "0/1",
        "codec_tag_string": "[0][0][0][0]",
        "codec_tag": "0x0000",
        "r_frame_rate": "0/0",
        "avg_frame_rate": "0/0",
        "time_base": "1/1000",
        "start_pts": 0,
        "start_time": "0.000000",
        "duration_ts": 1421448,
        "duration": "1421.448000",
        "disposition": {
          "default": 0,
          "dub": 0,
          "original": 0,
          "comment": 0,
          "lyrics": 0,
          "karaoke": 0,
          "forced": 0,
          "hearing_impaired": 0,
          "visual_impaired": 0,
          "clean_effects": 0,
          "attached_pic": 0,
          "timed_thumbnails": 0
        },
        "tags": {
          "language": "cze",
          "BPS": "46",
          "NUMBER_OF_FRAMES": "284",
          "NUMBER_OF_BYTES": "8110",
          "_STATISTICS_WRITING_APP": "mkvmerge v65.0.0 ('Too Much') 64-bit",
          "_STATISTICS_WRITING_DATE_UTC": "2023-04-23 13:06:42",
          "_STATISTICS_TAGS": "BPS DURATION NUMBER_OF_FRAMES NUMBER_OF_BYTES",
          "DURATION": "00:23:35.338000000"
        }
      },
      {
        "index": 7,
        "codec_name": "subrip",
        "codec_long_name": "SubRip subtitle",
        "codec_type": "subtitle",
        "codec_time_base": "0/1",
        "codec_tag_string": "[0][0][0][0]",
        "codec_tag": "0x0000",
        "r_frame_rate": "0/0",
        "avg_frame_rate": "0/0",
        "time_base": "1/1000",
        "start_pts": 0,
        "start_time": "0.000000",
        "duration_ts": 1421448,
        "duration": "1421.448000",
        "disposition": {
          "default": 0,
          "dub": 0,
          "original": 0,
          "comment": 0,
          "lyrics": 0,
          "karaoke": 0,
          "forced": 0,
          "hearing_impaired": 0,
          "visual_impaired": 0,
          "clean_effects": 0,
          "attached_pic": 0,
          "timed_thumbnails": 0
        },
        "tags": {
          "language": "dan",
          "BPS": "45",
          "NUMBER_OF_FRAMES": "296",
          "NUMBER_OF_BYTES": "8072",
          "_STATISTICS_WRITING_APP": "mkvmerge v65.0.0 ('Too Much') 64-bit",
          "_STATISTICS_WRITING_DATE_UTC": "2023-04-23 13:06:42",
          "_STATISTICS_TAGS": "BPS DURATION NUMBER_OF_FRAMES NUMBER_OF_BYTES",
          "DURATION": "00:23:35.338000000"
        }
      },
      {
        "index": 8,
        "codec_name": "subrip",
        "codec_long_name": "SubRip subtitle",
        "codec_type": "subtitle",
        "codec_time_base": "0/1",
        "codec_tag_string": "[0][0][0][0]",
        "codec_tag": "0x0000",
        "r_frame_rate": "0/0",
        "avg_frame_rate": "0/0",
        "time_base": "1/1000",
        "start_pts": 0,
        "start_time": "0.000000",
        "duration_ts": 1421448,
        "duration": "1421.448000",
        "disposition": {
          "default": 0,
          "dub": 0,
          "original": 0,
          "comment": 0,
          "lyrics": 0,
          "karaoke": 0,
          "forced": 0,
          "hearing_impaired": 0,
          "visual_impaired": 0,
          "clean_effects": 0,
          "attached_pic": 0,
          "timed_thumbnails": 0
        },
        "tags": {
          "language": "ger",
          "BPS": "51",
          "NUMBER_OF_FRAMES": "260",
          "NUMBER_OF_BYTES": "8995",
          "_STATISTICS_WRITING_APP": "mkvmerge v65.0.0 ('Too Much') 64-bit",
          "_STATISTICS_WRITING_DATE_UTC": "2023-04-23 13:06:42",
          "_STATISTICS_TAGS": "BPS DURATION NUMBER_OF_FRAMES NUMBER_OF_BYTES",
          "DURATION": "00:23:35.338000000"
        }
      },
      {
        "index": 9,
        "codec_name": "subrip",
        "codec_long_name": "SubRip subtitle",
        "codec_type": "subtitle",
        "codec_time_base": "0/1",
        "codec_tag_string": "[0][0][0][0]",
        "codec_tag": "0x0000",
        "r_frame_rate": "0/0",
        "avg_frame_rate": "0/0",
        "time_base": "1/1000",
        "start_pts": 0,
        "start_time": "0.000000",
        "duration_ts": 1421448,
        "duration": "1421.448000",
        "disposition": {
          "default": 0,
          "dub": 0,
          "original": 0,
          "comment": 0,
          "lyrics": 0,
          "karaoke": 0,
          "forced": 0,
          "hearing_impaired": 0,
          "visual_impaired": 0,
          "clean_effects": 0,
          "attached_pic": 0,
          "timed_thumbnails": 0
        },
        "tags": {
          "language": "gre",
          "BPS": "78",
          "NUMBER_OF_FRAMES": "293",
          "NUMBER_OF_BYTES": "13774",
          "_STATISTICS_WRITING_APP": "mkvmerge v65.0.0 ('Too Much') 64-bit",
          "_STATISTICS_WRITING_DATE_UTC": "2023-04-23 13:06:42",
          "_STATISTICS_TAGS": "BPS DURATION NUMBER_OF_FRAMES NUMBER_OF_BYTES",
          "DURATION": "00:23:35.338000000"
        }
      },
      {
        "index": 10,
        "codec_name": "subrip",
        "codec_long_name": "SubRip subtitle",
        "codec_type": "subtitle",
        "codec_time_base": "0/1",
        "codec_tag_string": "[0][0][0][0]",
        "codec_tag": "0x0000",
        "r_frame_rate": "0/0",
        "avg_frame_rate": "0/0",
        "time_base": "1/1000",
        "start_pts": 0,
        "start_time": "0.000000",
        "duration_ts": 1421448,
        "duration": "1421.448000",
        "disposition": {
          "default": 0,
          "dub": 0,
          "original": 0,
          "comment": 0,
          "lyrics": 0,
          "karaoke": 0,
          "forced": 0,
          "hearing_impaired": 0,
          "visual_impaired": 0,
          "clean_effects": 0,
          "attached_pic": 0,
          "timed_thumbnails": 0
        },
        "tags": {
          "language": "spa",
          "title": "Latin American",
          "BPS": "44",
          "NUMBER_OF_FRAMES": "289",
          "NUMBER_OF_BYTES": "7794",
          "_STATISTICS_WRITING_APP": "mkvmerge v65.0.0 ('Too Much') 64-bit",
          "_STATISTICS_WRITING_DATE_UTC": "2023-04-23 13:06:42",
          "_STATISTICS_TAGS": "BPS DURATION NUMBER_OF_FRAMES NUMBER_OF_BYTES",
          "DURATION": "00:23:35.338000000"
        }
      },
      {
        "index": 11,
        "codec_name": "subrip",
        "codec_long_name": "SubRip subtitle",
        "codec_type": "subtitle",
        "codec_time_base": "0/1",
        "codec_tag_string": "[0][0][0][0]",
        "codec_tag": "0x0000",
        "r_frame_rate": "0/0",
        "avg_frame_rate": "0/0",
        "time_base": "1/1000",
        "start_pts": 0,
        "start_time": "0.000000",
        "duration_ts": 1421448,
        "duration": "1421.448000",
        "disposition": {
          "default": 0,
          "dub": 0,
          "original": 0,
          "comment": 0,
          "lyrics": 0,
          "karaoke": 0,
          "forced": 0,
          "hearing_impaired": 0,
          "visual_impaired": 0,
          "clean_effects": 0,
          "attached_pic": 0,
          "timed_thumbnails": 0
        },
        "tags": {
          "language": "spa",
          "title": "European",
          "BPS": "50",
          "NUMBER_OF_FRAMES": "294",
          "NUMBER_OF_BYTES": "8906",
          "_STATISTICS_WRITING_APP": "mkvmerge v65.0.0 ('Too Much') 64-bit",
          "_STATISTICS_WRITING_DATE_UTC": "2023-04-23 13:06:42",
          "_STATISTICS_TAGS": "BPS DURATION NUMBER_OF_FRAMES NUMBER_OF_BYTES",
          "DURATION": "00:23:35.338000000"
        }
      },
      {
        "index": 12,
        "codec_name": "subrip",
        "codec_long_name": "SubRip subtitle",
        "codec_type": "subtitle",
        "codec_time_base": "0/1",
        "codec_tag_string": "[0][0][0][0]",
        "codec_tag": "0x0000",
        "r_frame_rate": "0/0",
        "avg_frame_rate": "0/0",
        "time_base": "1/1000",
        "start_pts": 0,
        "start_time": "0.000000",
        "duration_ts": 1421448,
        "duration": "1421.448000",
        "disposition": {
          "default": 0,
          "dub": 0,
          "original": 0,
          "comment": 0,
          "lyrics": 0,
          "karaoke": 0,
          "forced": 0,
          "hearing_impaired": 0,
          "visual_impaired": 0,
          "clean_effects": 0,
          "attached_pic": 0,
          "timed_thumbnails": 0
        },
        "tags": {
          "language": "fin",
          "BPS": "42",
          "NUMBER_OF_FRAMES": "294",
          "NUMBER_OF_BYTES": "7411",
          "_STATISTICS_WRITING_APP": "mkvmerge v65.0.0 ('Too Much') 64-bit",
          "_STATISTICS_WRITING_DATE_UTC": "2023-04-23 13:06:42",
          "_STATISTICS_TAGS": "BPS DURATION NUMBER_OF_FRAMES NUMBER_OF_BYTES",
          "DURATION": "00:23:35.338000000"
        }
      },
      {
        "index": 13,
        "codec_name": "subrip",
        "codec_long_name": "SubRip subtitle",
        "codec_type": "subtitle",
        "codec_time_base": "0/1",
        "codec_tag_string": "[0][0][0][0]",
        "codec_tag": "0x0000",
        "r_frame_rate": "0/0",
        "avg_frame_rate": "0/0",
        "time_base": "1/1000",
        "start_pts": 0,
        "start_time": "0.000000",
        "duration_ts": 1421448,
        "duration": "1421.448000",
        "disposition": {
          "default": 1,
          "dub": 0,
          "original": 0,
          "comment": 0,
          "lyrics": 0,
          "karaoke": 0,
          "forced": 0,
          "hearing_impaired": 0,
          "visual_impaired": 0,
          "clean_effects": 0,
          "attached_pic": 0,
          "timed_thumbnails": 0
        },
        "tags": {
          "language": "fre",
          "title": "European",
          "BPS": "46",
          "NUMBER_OF_FRAMES": "295",
          "NUMBER_OF_BYTES": "8262",
          "_STATISTICS_WRITING_APP": "mkvmerge v65.0.0 ('Too Much') 64-bit",
          "_STATISTICS_WRITING_DATE_UTC": "2023-04-23 13:06:42",
          "_STATISTICS_TAGS": "BPS DURATION NUMBER_OF_FRAMES NUMBER_OF_BYTES",
          "DURATION": "00:23:35.338000000"
        }
      },
      {
        "index": 14,
        "codec_name": "subrip",
        "codec_long_name": "SubRip subtitle",
        "codec_type": "subtitle",
        "codec_time_base": "0/1",
        "codec_tag_string": "[0][0][0][0]",
        "codec_tag": "0x0000",
        "r_frame_rate": "0/0",
        "avg_frame_rate": "0/0",
        "time_base": "1/1000",
        "start_pts": 0,
        "start_time": "0.000000",
        "duration_ts": 1421448,
        "duration": "1421.448000",
        "disposition": {
          "default": 0,
          "dub": 0,
          "original": 0,
          "comment": 0,
          "lyrics": 0,
          "karaoke": 0,
          "forced": 0,
          "hearing_impaired": 0,
          "visual_impaired": 0,
          "clean_effects": 0,
          "attached_pic": 0,
          "timed_thumbnails": 0
        },
        "tags": {
          "language": "hun",
          "BPS": "47",
          "NUMBER_OF_FRAMES": "295",
          "NUMBER_OF_BYTES": "8337",
          "_STATISTICS_WRITING_APP": "mkvmerge v65.0.0 ('Too Much') 64-bit",
          "_STATISTICS_WRITING_DATE_UTC": "2023-04-23 13:06:42",
          "_STATISTICS_TAGS": "BPS DURATION NUMBER_OF_FRAMES NUMBER_OF_BYTES",
          "DURATION": "00:23:35.338000000"
        }
      },
      {
        "index": 15,
        "codec_name": "subrip",
        "codec_long_name": "SubRip subtitle",
        "codec_type": "subtitle",
        "codec_time_base": "0/1",
        "codec_tag_string": "[0][0][0][0]",
        "codec_tag": "0x0000",
        "r_frame_rate": "0/0",
        "avg_frame_rate": "0/0",
        "time_base": "1/1000",
        "start_pts": 0,
        "start_time": "0.000000",
        "duration_ts": 1421448,
        "duration": "1421.448000",
        "disposition": {
          "default": 0,
          "dub": 0,
          "original": 0,
          "comment": 0,
          "lyrics": 0,
          "karaoke": 0,
          "forced": 0,
          "hearing_impaired": 0,
          "visual_impaired": 0,
          "clean_effects": 0,
          "attached_pic": 0,
          "timed_thumbnails": 0
        },
        "tags": {
          "language": "ita",
          "BPS": "47",
          "NUMBER_OF_FRAMES": "297",
          "NUMBER_OF_BYTES": "8280",
          "_STATISTICS_WRITING_APP": "mkvmerge v65.0.0 ('Too Much') 64-bit",
          "_STATISTICS_WRITING_DATE_UTC": "2023-04-23 13:06:42",
          "_STATISTICS_TAGS": "BPS DURATION NUMBER_OF_FRAMES NUMBER_OF_BYTES",
          "DURATION": "00:23:35.338000000"
        }
      },
      {
        "index": 16,
        "codec_name": "subrip",
        "codec_long_name": "SubRip subtitle",
        "codec_type": "subtitle",
        "codec_time_base": "0/1",
        "codec_tag_string": "[0][0][0][0]",
        "codec_tag": "0x0000",
        "r_frame_rate": "0/0",
        "avg_frame_rate": "0/0",
        "time_base": "1/1000",
        "start_pts": 0,
        "start_time": "0.000000",
        "duration_ts": 1421448,
        "duration": "1421.448000",
        "disposition": {
          "default": 0,
          "dub": 0,
          "original": 0,
          "comment": 0,
          "lyrics": 0,
          "karaoke": 0,
          "forced": 0,
          "hearing_impaired": 0,
          "visual_impaired": 0,
          "clean_effects": 0,
          "attached_pic": 0,
          "timed_thumbnails": 0
        },
        "tags": {
          "language": "kor",
          "BPS": "52",
          "NUMBER_OF_FRAMES": "298",
          "NUMBER_OF_BYTES": "9218",
          "_STATISTICS_WRITING_APP": "mkvmerge v65.0.0 ('Too Much') 64-bit",
          "_STATISTICS_WRITING_DATE_UTC": "2023-04-23 13:06:42",
          "_STATISTICS_TAGS": "BPS DURATION NUMBER_OF_FRAMES NUMBER_OF_BYTES",
          "DURATION": "00:23:35.338000000"
        }
      },
      {
        "index": 17,
        "codec_name": "subrip",
        "codec_long_name": "SubRip subtitle",
        "codec_type": "subtitle",
        "codec_time_base": "0/1",
        "codec_tag_string": "[0][0][0][0]",
        "codec_tag": "0x0000",
        "r_frame_rate": "0/0",
        "avg_frame_rate": "0/0",
        "time_base": "1/1000",
        "start_pts": 0,
        "start_time": "0.000000",
        "duration_ts": 1421448,
        "duration": "1421.448000",
        "disposition": {
          "default": 0,
          "dub": 0,
          "original": 0,
          "comment": 0,
          "lyrics": 0,
          "karaoke": 0,
          "forced": 0,
          "hearing_impaired": 0,
          "visual_impaired": 0,
          "clean_effects": 0,
          "attached_pic": 0,
          "timed_thumbnails": 0
        },
        "tags": {
          "language": "dut",
          "BPS": "43",
          "NUMBER_OF_FRAMES": "294",
          "NUMBER_OF_BYTES": "7640",
          "_STATISTICS_WRITING_APP": "mkvmerge v65.0.0 ('Too Much') 64-bit",
          "_STATISTICS_WRITING_DATE_UTC": "2023-04-23 13:06:42",
          "_STATISTICS_TAGS": "BPS DURATION NUMBER_OF_FRAMES NUMBER_OF_BYTES",
          "DURATION": "00:23:35.338000000"
        }
      },
      {
        "index": 18,
        "codec_name": "subrip",
        "codec_long_name": "SubRip subtitle",
        "codec_type": "subtitle",
        "codec_time_base": "0/1",
        "codec_tag_string": "[0][0][0][0]",
        "codec_tag": "0x0000",
        "r_frame_rate": "0/0",
        "avg_frame_rate": "0/0",
        "time_base": "1/1000",
        "start_pts": 0,
        "start_time": "0.000000",
        "duration_ts": 1421448,
        "duration": "1421.448000",
        "disposition": {
          "default": 0,
          "dub": 0,
          "original": 0,
          "comment": 0,
          "lyrics": 0,
          "karaoke": 0,
          "forced": 0,
          "hearing_impaired": 0,
          "visual_impaired": 0,
          "clean_effects": 0,
          "attached_pic": 0,
          "timed_thumbnails": 0
        },
        "tags": {
          "language": "nor",
          "BPS": "46",
          "NUMBER_OF_FRAMES": "288",
          "NUMBER_OF_BYTES": "8177",
          "_STATISTICS_WRITING_APP": "mkvmerge v65.0.0 ('Too Much') 64-bit",
          "_STATISTICS_WRITING_DATE_UTC": "2023-04-23 13:06:42",
          "_STATISTICS_TAGS": "BPS DURATION NUMBER_OF_FRAMES NUMBER_OF_BYTES",
          "DURATION": "00:23:35.338000000"
        }
      },
      {
        "index": 19,
        "codec_name": "subrip",
        "codec_long_name": "SubRip subtitle",
        "codec_type": "subtitle",
        "codec_time_base": "0/1",
        "codec_tag_string": "[0][0][0][0]",
        "codec_tag": "0x0000",
        "r_frame_rate": "0/0",
        "avg_frame_rate": "0/0",
        "time_base": "1/1000",
        "start_pts": 0,
        "start_time": "0.000000",
        "duration_ts": 1421448,
        "duration": "1421.448000",
        "disposition": {
          "default": 0,
          "dub": 0,
          "original": 0,
          "comment": 0,
          "lyrics": 0,
          "karaoke": 0,
          "forced": 0,
          "hearing_impaired": 0,
          "visual_impaired": 0,
          "clean_effects": 0,
          "attached_pic": 0,
          "timed_thumbnails": 0
        },
        "tags": {
          "language": "pol",
          "BPS": "42",
          "NUMBER_OF_FRAMES": "292",
          "NUMBER_OF_BYTES": "7536",
          "_STATISTICS_WRITING_APP": "mkvmerge v65.0.0 ('Too Much') 64-bit",
          "_STATISTICS_WRITING_DATE_UTC": "2023-04-23 13:06:42",
          "_STATISTICS_TAGS": "BPS DURATION NUMBER_OF_FRAMES NUMBER_OF_BYTES",
          "DURATION": "00:23:35.338000000"
        }
      },
      {
        "index": 20,
        "codec_name": "subrip",
        "codec_long_name": "SubRip subtitle",
        "codec_type": "subtitle",
        "codec_time_base": "0/1",
        "codec_tag_string": "[0][0][0][0]",
        "codec_tag": "0x0000",
        "r_frame_rate": "0/0",
        "avg_frame_rate": "0/0",
        "time_base": "1/1000",
        "start_pts": 0,
        "start_time": "0.000000",
        "duration_ts": 1421448,
        "duration": "1421.448000",
        "disposition": {
          "default": 0,
          "dub": 0,
          "original": 0,
          "comment": 0,
          "lyrics": 0,
          "karaoke": 0,
          "forced": 0,
          "hearing_impaired": 0,
          "visual_impaired": 0,
          "clean_effects": 0,
          "attached_pic": 0,
          "timed_thumbnails": 0
        },
        "tags": {
          "language": "por",
          "title": "Brazilian",
          "BPS": "46",
          "NUMBER_OF_FRAMES": "298",
          "NUMBER_OF_BYTES": "8117",
          "_STATISTICS_WRITING_APP": "mkvmerge v65.0.0 ('Too Much') 64-bit",
          "_STATISTICS_WRITING_DATE_UTC": "2023-04-23 13:06:42",
          "_STATISTICS_TAGS": "BPS DURATION NUMBER_OF_FRAMES NUMBER_OF_BYTES",
          "DURATION": "00:23:35.338000000"
        }
      },
      {
        "index": 21,
        "codec_name": "subrip",
        "codec_long_name": "SubRip subtitle",
        "codec_type": "subtitle",
        "codec_time_base": "0/1",
        "codec_tag_string": "[0][0][0][0]",
        "codec_tag": "0x0000",
        "r_frame_rate": "0/0",
        "avg_frame_rate": "0/0",
        "time_base": "1/1000",
        "start_pts": 0,
        "start_time": "0.000000",
        "duration_ts": 1421448,
        "duration": "1421.448000",
        "disposition": {
          "default": 0,
          "dub": 0,
          "original": 0,
          "comment": 0,
          "lyrics": 0,
          "karaoke": 0,
          "forced": 0,
          "hearing_impaired": 0,
          "visual_impaired": 0,
          "clean_effects": 0,
          "attached_pic": 0,
          "timed_thumbnails": 0
        },
        "tags": {
          "language": "por",
          "title": "European",
          "BPS": "46",
          "NUMBER_OF_FRAMES": "294",
          "NUMBER_OF_BYTES": "8246",
          "_STATISTICS_WRITING_APP": "mkvmerge v65.0.0 ('Too Much') 64-bit",
          "_STATISTICS_WRITING_DATE_UTC": "2023-04-23 13:06:42",
          "_STATISTICS_TAGS": "BPS DURATION NUMBER_OF_FRAMES NUMBER_OF_BYTES",
          "DURATION": "00:23:35.338000000"
        }
      },
      {
        "index": 22,
        "codec_name": "subrip",
        "codec_long_name": "SubRip subtitle",
        "codec_type": "subtitle",
        "codec_time_base": "0/1",
        "codec_tag_string": "[0][0][0][0]",
        "codec_tag": "0x0000",
        "r_frame_rate": "0/0",
        "avg_frame_rate": "0/0",
        "time_base": "1/1000",
        "start_pts": 0,
        "start_time": "0.000000",
        "duration_ts": 1421448,
        "duration": "1421.448000",
        "disposition": {
          "default": 0,
          "dub": 0,
          "original": 0,
          "comment": 0,
          "lyrics": 0,
          "karaoke": 0,
          "forced": 0,
          "hearing_impaired": 0,
          "visual_impaired": 0,
          "clean_effects": 0,
          "attached_pic": 0,
          "timed_thumbnails": 0
        },
        "tags": {
          "language": "rum",
          "BPS": "45",
          "NUMBER_OF_FRAMES": "253",
          "NUMBER_OF_BYTES": "8079",
          "_STATISTICS_WRITING_APP": "mkvmerge v65.0.0 ('Too Much') 64-bit",
          "_STATISTICS_WRITING_DATE_UTC": "2023-04-23 13:06:42",
          "_STATISTICS_TAGS": "BPS DURATION NUMBER_OF_FRAMES NUMBER_OF_BYTES",
          "DURATION": "00:23:35.338000000"
        }
      },
      {
        "index": 23,
        "codec_name": "subrip",
        "codec_long_name": "SubRip subtitle",
        "codec_type": "subtitle",
        "codec_time_base": "0/1",
        "codec_tag_string": "[0][0][0][0]",
        "codec_tag": "0x0000",
        "r_frame_rate": "0/0",
        "avg_frame_rate": "0/0",
        "time_base": "1/1000",
        "start_pts": 0,
        "start_time": "0.000000",
        "duration_ts": 1421448,
        "duration": "1421.448000",
        "disposition": {
          "default": 0,
          "dub": 0,
          "original": 0,
          "comment": 0,
          "lyrics": 0,
          "karaoke": 0,
          "forced": 0,
          "hearing_impaired": 0,
          "visual_impaired": 0,
          "clean_effects": 0,
          "attached_pic": 0,
          "timed_thumbnails": 0
        },
        "tags": {
          "language": "slo",
          "BPS": "43",
          "NUMBER_OF_FRAMES": "294",
          "NUMBER_OF_BYTES": "7605",
          "_STATISTICS_WRITING_APP": "mkvmerge v65.0.0 ('Too Much') 64-bit",
          "_STATISTICS_WRITING_DATE_UTC": "2023-04-23 13:06:42",
          "_STATISTICS_TAGS": "BPS DURATION NUMBER_OF_FRAMES NUMBER_OF_BYTES",
          "DURATION": "00:23:35.338000000"
        }
      },
      {
        "index": 24,
        "codec_name": "subrip",
        "codec_long_name": "SubRip subtitle",
        "codec_type": "subtitle",
        "codec_time_base": "0/1",
        "codec_tag_string": "[0][0][0][0]",
        "codec_tag": "0x0000",
        "r_frame_rate": "0/0",
        "avg_frame_rate": "0/0",
        "time_base": "1/1000",
        "start_pts": 0,
        "start_time": "0.000000",
        "duration_ts": 1421448,
        "duration": "1421.448000",
        "disposition": {
          "default": 0,
          "dub": 0,
          "original": 0,
          "comment": 0,
          "lyrics": 0,
          "karaoke": 0,
          "forced": 0,
          "hearing_impaired": 0,
          "visual_impaired": 0,
          "clean_effects": 0,
          "attached_pic": 0,
          "timed_thumbnails": 0
        },
        "tags": {
          "language": "swe",
          "BPS": "49",
          "NUMBER_OF_FRAMES": "298",
          "NUMBER_OF_BYTES": "8732",
          "_STATISTICS_WRITING_APP": "mkvmerge v65.0.0 ('Too Much') 64-bit",
          "_STATISTICS_WRITING_DATE_UTC": "2023-04-23 13:06:42",
          "_STATISTICS_TAGS": "BPS DURATION NUMBER_OF_FRAMES NUMBER_OF_BYTES",
          "DURATION": "00:23:35.338000000"
        }
      },
      {
        "index": 25,
        "codec_name": "subrip",
        "codec_long_name": "SubRip subtitle",
        "codec_type": "subtitle",
        "codec_time_base": "0/1",
        "codec_tag_string": "[0][0][0][0]",
        "codec_tag": "0x0000",
        "r_frame_rate": "0/0",
        "avg_frame_rate": "0/0",
        "time_base": "1/1000",
        "start_pts": 0,
        "start_time": "0.000000",
        "duration_ts": 1421448,
        "duration": "1421.448000",
        "disposition": {
          "default": 0,
          "dub": 0,
          "original": 0,
          "comment": 0,
          "lyrics": 0,
          "karaoke": 0,
          "forced": 0,
          "hearing_impaired": 0,
          "visual_impaired": 0,
          "clean_effects": 0,
          "attached_pic": 0,
          "timed_thumbnails": 0
        },
        "tags": {
          "language": "tur",
          "BPS": "45",
          "NUMBER_OF_FRAMES": "296",
          "NUMBER_OF_BYTES": "8047",
          "_STATISTICS_WRITING_APP": "mkvmerge v65.0.0 ('Too Much') 64-bit",
          "_STATISTICS_WRITING_DATE_UTC": "2023-04-23 13:06:42",
          "_STATISTICS_TAGS": "BPS DURATION NUMBER_OF_FRAMES NUMBER_OF_BYTES",
          "DURATION": "00:23:35.338000000"
        }
      },
      {
        "index": 26,
        "codec_name": "subrip",
        "codec_long_name": "SubRip subtitle",
        "codec_type": "subtitle",
        "codec_time_base": "0/1",
        "codec_tag_string": "[0][0][0][0]",
        "codec_tag": "0x0000",
        "r_frame_rate": "0/0",
        "avg_frame_rate": "0/0",
        "time_base": "1/1000",
        "start_pts": 0,
        "start_time": "0.000000",
        "duration_ts": 1421448,
        "duration": "1421.448000",
        "disposition": {
          "default": 0,
          "dub": 0,
          "original": 0,
          "comment": 0,
          "lyrics": 0,
          "karaoke": 0,
          "forced": 0,
          "hearing_impaired": 0,
          "visual_impaired": 0,
          "clean_effects": 0,
          "attached_pic": 0,
          "timed_thumbnails": 0
        },
        "tags": {
          "language": "chi",
          "title": "Hong Kong",
          "BPS": "40",
          "NUMBER_OF_FRAMES": "292",
          "NUMBER_OF_BYTES": "7155",
          "_STATISTICS_WRITING_APP": "mkvmerge v65.0.0 ('Too Much') 64-bit",
          "_STATISTICS_WRITING_DATE_UTC": "2023-04-23 13:06:42",
          "_STATISTICS_TAGS": "BPS DURATION NUMBER_OF_FRAMES NUMBER_OF_BYTES",
          "DURATION": "00:23:35.338000000"
        }
      },
      {
        "index": 27,
        "codec_name": "subrip",
        "codec_long_name": "SubRip subtitle",
        "codec_type": "subtitle",
        "codec_time_base": "0/1",
        "codec_tag_string": "[0][0][0][0]",
        "codec_tag": "0x0000",
        "r_frame_rate": "0/0",
        "avg_frame_rate": "0/0",
        "time_base": "1/1000",
        "start_pts": 0,
        "start_time": "0.000000",
        "duration_ts": 1421448,
        "duration": "1421.448000",
        "disposition": {
          "default": 0,
          "dub": 0,
          "original": 0,
          "comment": 0,
          "lyrics": 0,
          "karaoke": 0,
          "forced": 0,
          "hearing_impaired": 0,
          "visual_impaired": 0,
          "clean_effects": 0,
          "attached_pic": 0,
          "timed_thumbnails": 0
        },
        "tags": {
          "language": "chi",
          "title": "Traditional",
          "BPS": "45",
          "NUMBER_OF_FRAMES": "295",
          "NUMBER_OF_BYTES": "7946",
          "_STATISTICS_WRITING_APP": "mkvmerge v65.0.0 ('Too Much') 64-bit",
          "_STATISTICS_WRITING_DATE_UTC": "2023-04-23 13:06:42",
          "_STATISTICS_TAGS": "BPS DURATION NUMBER_OF_FRAMES NUMBER_OF_BYTES",
          "DURATION": "00:23:35.338000000"
        }
      },
      {
        "index": 28,
        "codec_name": "aac",
        "codec_long_name": "AAC (Advanced Audio Coding)",
        "profile": "LC",
        "codec_type": "audio",
        "codec_time_base": "1/48000",
        "codec_tag_string": "[0][0][0][0]",
        "codec_tag": "0x0000",
        "sample_fmt": "fltp",
        "sample_rate": "48000",
        "channels": 2,
        "channel_layout": "stereo",
        "bits_per_sample": 0,
        "r_frame_rate": "0/0",
        "avg_frame_rate": "0/0",
        "time_base": "1/1000",
        "start_pts": 0,
        "start_time": "0.000000",
        "disposition": {
          "default": 1,
          "dub": 0,
          "original": 0,
          "comment": 0,
          "lyrics": 0,
          "karaoke": 0,
          "forced": 0,
          "hearing_impaired": 0,
          "visual_impaired": 0,
          "clean_effects": 0,
          "attached_pic": 0,
          "timed_thumbnails": 0
        },
        "tags": {
          "title": "English",
          "BPS": "125375",
          "NUMBER_OF_FRAMES": "66629",
          "NUMBER_OF_BYTES": "22276296",
          "_STATISTICS_WRITING_APP": "mkvmerge v74.0.0 ('You Oughta Know') 64-bit",
          "_STATISTICS_WRITING_DATE_UTC": "2023-04-29 02:41:00",
          "_STATISTICS_TAGS": "BPS DURATION NUMBER_OF_FRAMES NUMBER_OF_BYTES",
          "DURATION": "00:23:41.418000000"
        }
      }
    ],
    "format": {
      "filename": "sample3.mkv",
      "nb_streams": 5,
      "nb_programs": 0,
      "format_name": "matroska,webm",
      "format_long_name": "Matroska / WebM",
      "start_time": "0.000000",
      "duration": "1387.053000",
      "size": "2124977828",
      "bit_rate": "12256072",
      "probe_score": 100,
      "tags": {
        "encoder": "libebml v1.4.2 + libmatroska v1.6.4",
        "creation_time": "2021-03-13T02:23:31.000000Z"
      }
    }
  },
  "file_size": 1.0075750350952148,
  "video_resolution": "720p",
  "fileMedium": "video",
  "video_codec_name": "h264",
  "audio_codec_name": "",
  "lastPluginDetails": "none",
  "createdAt": 1653029288316,
  "bit_rate": 1591143,
  "duration": 5,
  "statSync": {
    "dev": 3832468976,
    "mode": 33060,
    "nlink": 1,
    "uid": 0,
    "gid": 0,
    "rdev": 0,
    "blksize": 4096,
    "ino": 1688849864649366,
    "size": 1056519,
    "blocks": 2064,
    "atimeMs": 1653029288299.0342,
    "mtimeMs": 1569306262000,
    "ctimeMs": 1650864287160.0793,
    "birthtimeMs": 1652683715285.7583,
    "atime": "2022-05-20T06:48:08.299Z",
    "mtime": "2019-09-24T06:24:22.000Z",
    "ctime": "2022-04-25T05:24:47.160Z",
    "birthtime": "2022-05-16T06:48:35.286Z"
  },
  "HealthCheck": "",
  "TranscodeDecisionMaker": "",
  "lastHealthCheckDate": 0,
  "holdUntil": 0,
  "lastTranscodeDate": 0,
  "bumped": false,
  "history": "",
  "oldSize": 0,
  "newSize": 0,
  "videoStreamIndex": 0,
  "lastUpdate": 1653028721083,
  "meta": {
    "SourceFile": "C:/Transcode/Source Folder/SampleVideo_1280x720_1mb.mp4",
    "errors": [],
    "Duration": 5.312,
    "PreviewDuration": 0,
    "SelectionDuration": 0,
    "TrackDuration": 5.28,
    "MediaDuration": 5.28,
    "ExifToolVersion": 12.4,
    "FileName": "SampleVideo_1280x720_1mb.mp4",
    "Directory": "C:/Transcode/Source Folder",
    "FileSize": "1032 KiB",
    "FileModifyDate": {
      "year": 2019,
      "month": 9,
      "day": 24,
      "hour": 7,
      "minute": 24,
      "second": 22,
      "millisecond": 0,
      "tzoffsetMinutes": 60,
      "rawValue": "2019:09:24 07:24:22+01:00"
    },
    "FileAccessDate": {
      "year": 2022,
      "month": 5,
      "day": 20,
      "hour": 7,
      "minute": 48,
      "second": 6,
      "millisecond": 0,
      "tzoffsetMinutes": 60,
      "rawValue": "2022:05:20 07:48:06+01:00"
    },
    "FileCreateDate": {
      "year": 2022,
      "month": 5,
      "day": 16,
      "hour": 7,
      "minute": 48,
      "second": 35,
      "millisecond": 0,
      "tzoffsetMinutes": 60,
      "rawValue": "2022:05:16 07:48:35+01:00"
    },
    "FilePermissions": "-r--r--r--",
    "FileType": "MP4",
    "FileTypeExtension": "mp4",
    "MIMEType": "video/mp4",
    "MajorBrand": "MP4 Base Media v1 [IS0 14496-12:2003]",
    "MinorVersion": "0.2.0",
    "CompatibleBrands": [
      "isom",
      "iso2",
      "avc1",
      "mp41"
    ],
    "MediaDataSize": 0,
    "MediaDataOffset": 1051515,
    "MovieHeaderVersion": 0,
    "CreateDate": {
      "year": 1970,
      "month": 1,
      "day": 8,
      "hour": 0,
      "minute": 0,
      "second": 0,
      "millisecond": 0,
      "rawValue": "1970:01:08 00:00:00"
    },
    "ModifyDate": {
      "year": 2014,
      "month": 7,
      "day": 19,
      "hour": 17,
      "minute": 15,
      "second": 29,
      "millisecond": 0,
      "rawValue": "2014:07:19 17:15:29"
    },
    "TimeScale": 1000,
    "PreferredRate": 1,
    "PreferredVolume": "100.00%",
    "PreviewTime": "0 s",
    "PosterTime": "0 s",
    "SelectionTime": "0 s",
    "CurrentTime": "0 s",
    "NextTrackID": 3,
    "TrackHeaderVersion": 0,
    "TrackCreateDate": "0000:00:00 00:00:00",
    "TrackModifyDate": "0000:00:00 00:00:00",
    "TrackID": 1,
    "TrackLayer": 0,
    "TrackVolume": "0.00%",
    "ImageWidth": 1280,
    "ImageHeight": 720,
    "GraphicsMode": "srcCopy",
    "OpColor": "0 0 0",
    "CompressorID": "avc1",
    "SourceImageWidth": 1280,
    "SourceImageHeight": 720,
    "XResolution": 72,
    "YResolution": 72,
    "BitDepth": 24,
    "VideoFrameRate": 25,
    "MatrixStructure": "1 0 0 0 1 0 0 0 1",
    "MediaHeaderVersion": 0,
    "MediaCreateDate": "0000:00:00 00:00:00",
    "MediaModifyDate": "0000:00:00 00:00:00",
    "MediaTimeScale": 48000,
    "MediaLanguageCode": "und",
    "HandlerDescription": "SoundHandler",
    "Balance": 0,
    "AudioFormat": "mp4a",
    "AudioChannels": 2,
    "AudioBitsPerSample": 16,
    "AudioSampleRate": 48000,
    "HandlerType": "Metadata",
    "HandlerVendorID": "Apple",
    "Encoder": "Lavf53.24.2",
    "Title": "Sample title test",
    "Composer": "th",
    "BeatsPerMinute": 0,
    "ContentCreateDate": 2018,
    "Genre": "this",
    "Artist": "hhj",
    "Comment": "hhk",
    "Subtitle": "jj",
    "Mood": "lik",
    "ContentDistributor": "cont",
    "Conductor": "jo",
    "Writer": "writ",
    "InitialKey": "ho",
    "Producer": "prod",
    "ParentalRating": "par",
    "Director": "dir",
    "Period": "pol",
    "Publisher": "pub",
    "PromotionURL": "prom",
    "AuthorURL": "auth",
    "EncodedBy": "enc",
    "Category": "h",
    "ImageSize": "1280x720",
    "Megapixels": 0.922,
    "AvgBitrate": "1.58 Mbps",
    "Rotation": 0
  },
  "mediaInfo": {
    "@ref": "",
    "track": [
      {
        "@type": "General",
        "VideoCount": "1",
        "AudioCount": "1",
        "Format": "MPEG-4",
        "Format_Profile": "Base Media",
        "CodecID": "isom",
        "CodecID_Compatible": "isom/iso2/avc1/mp41",
        "FileSize": "1056519",
        "Duration": "5.312",
        "OverallBitRate_Mode": "VBR",
        "OverallBitRate": "1591143",
        "FrameRate": "25.000",
        "FrameCount": "132",
        "StreamSize": "5060",
        "HeaderSize": "40",
        "DataSize": "1051467",
        "FooterSize": "5012",
        "IsStreamable": "No",
        "Title": "Sample title test",
        "Movie": "Sample title test",
        "Performer": "hhj",
        "Composer": "th",
        "Genre": "this",
        "Recorded_Date": "2018",
        "Encoded_Date": "UTC 1970-01-08 00:00:00",
        "Tagged_Date": "UTC 2014-07-19 17:15:29",
        "Encoded_Application": "Lavf53.24.2",
        "Comment": "hhk"
      },
      {
        "@type": "Video",
        "StreamOrder": "0",
        "ID": "1",
        "Format": "AVC",
        "Format_Profile": "Main",
        "Format_Level": "3.1",
        "Format_Settings_CABAC": "Yes",
        "Format_Settings_RefFrames": "1",
        "CodecID": "avc1",
        "Duration": "5.280",
        "BitRate": "1205959",
        "Width": "1280",
        "Height": "720",
        "Sampled_Width": "1280",
        "Sampled_Height": "720",
        "PixelAspectRatio": "1.000",
        "DisplayAspectRatio": "1.778",
        "Rotation": "0.000",
        "FrameRate_Mode": "CFR",
        "FrameRate_Mode_Original": "VFR",
        "FrameRate": "25.000",
        "FrameCount": "132",
        "ColorSpace": "YUV",
        "ChromaSubsampling": "4:2:0",
        "BitDepth": "8",
        "ScanType": "Progressive",
        "StreamSize": "795933",
        "Encoded_Date": "UTC 1970-01-01 00:00:00",
        "Tagged_Date": "UTC 1970-01-01 00:00:00",
        "extra": {
          "CodecConfigurationBox": "avcC"
        }
      },
      {
        "@type": "Audio",
        "StreamOrder": "1",
        "ID": "2",
        "Format": "AAC",
        "Format_AdditionalFeatures": "LC",
        "CodecID": "mp4a-40-2",
        "Duration": "5.312",
        "BitRate_Mode": "VBR",
        "BitRate": "384000",
        "BitRate_Maximum": "400392",
        "Channels": "6",
        "ChannelPositions": "Front: L C R, Side: L R, LFE",
        "ChannelLayout": "C L R Ls Rs LFE",
        "SamplesPerFrame": "1024",
        "SamplingRate": "48000",
        "SamplingCount": "254976",
        "FrameRate": "46.875",
        "FrameCount": "249",
        "Compression_Mode": "Lossy",
        "StreamSize": "255526",
        "StreamSize_Proportion": "0.24186",
        "Default": "Yes",
        "AlternateGroup": "1",
        "Encoded_Date": "UTC 1970-01-01 00:00:00",
        "Tagged_Date": "UTC 1970-01-01 00:00:00"
      }
    ]
  }
}